PathFileType	4	(X/Y/Z)	 staticP091.trc
DataRate	CameraRate	NumFrames	NumMarkers	Units	OrigDataRate	OrigDataStartFrame	OrigNumFrames
100	100	7	53	M	100	76	100
Frame#	Time	RM1D			RM5D			RM2B			LM1D			LM5D			LM2B			RCAL			LCAL			RLMAL			LLMAL			RMMAL			LMMAL			RSTL			LSTL			RFLE			RFME			LFME			LFLE			RHFIB			LHFIB			RTTUB			LTTUB			RSSH			LSSH			RTL			LTL			RTAP			RTAD			LTAP			LTAD			RTPP			RTPD			LTPP			LTPD			RPSIS			LPSIS			RASIS			LASIS			T10			T2			IJ			SA			RACR			LACR			RHLE			LHLE			RUSP			LUSP			RCB			LCB			IN			LHME			RHME			
		X1	Y1	Z1	X2	Y2	Z2	X3	Y3	Z3	X4	Y4	Z4	X5	Y5	Z5	X6	Y6	Z6	X7	Y7	Z7	X8	Y8	Z8	X9	Y9	Z9	X10	Y10	Z10	X11	Y11	Z11	X12	Y12	Z12	X13	Y13	Z13	X14	Y14	Z14	X15	Y15	Z15	X16	Y16	Z16	X17	Y17	Z17	X18	Y18	Z18	X19	Y19	Z19	X20	Y20	Z20	X21	Y21	Z21	X22	Y22	Z22	X23	Y23	Z23	X24	Y24	Z24	X25	Y25	Z25	X26	Y26	Z26	X27	Y27	Z27	X28	Y28	Z28	X29	Y29	Z29	X30	Y30	Z30	X31	Y31	Z31	X32	Y32	Z32	X33	Y33	Z33	X34	Y34	Z34	X35	Y35	Z35	X36	Y36	Z36	X37	Y37	Z37	X38	Y38	Z38	X39	Y39	Z39	X40	Y40	Z40	X41	Y41	Z41	X42	Y42	Z42	X43	Y43	Z43	X44	Y44	Z44	X45	Y45	Z45	X46	Y46	Z46	X47	Y47	Z47	X48	Y48	Z48	X49	Y49	Z49	X50	Y50	Z50	X51	Y51	Z51	X52	Y52	Z52	X53	Y53	Z53	
76	0.7600	-0.106081	0.042491	-0.152348	-0.146417	0.029132	-0.089461	-0.157153	0.052499	-0.127952	-0.110394	0.043547	-0.355092	-0.146334	0.024799	-0.428296	-0.159146	0.051201	-0.385119	-0.302237	0.050775	-0.161950	-0.308654	0.049320	-0.356854	-0.256236	0.068405	-0.117221	-0.260630	0.069344	-0.397142	-0.231841	0.087486	-0.196982	-0.236159	0.078039	-0.319125	-0.250201	0.035470	-0.191914	-0.266462	0.038697	-0.328683	-0.199329	0.460584	-0.118209	-0.206108	0.441763	-0.220365	-0.205877	0.453062	-0.287096	-0.202511	0.466570	-0.394686	-0.232124	0.413046	-0.106385	-0.236374	0.412721	-0.409910	-0.185548	0.395358	-0.149597	-0.186376	0.395231	-0.355072	-0.198942	0.305753	-0.163984	-0.210069	0.195603	-0.356554	-0.172619	0.658732	-0.076424	-0.187285	0.662954	-0.429292	-0.070262	0.709367	-0.152437	-0.095770	0.616828	-0.155160	-0.073431	0.716167	-0.354429	-0.099878	0.617923	-0.353062	-0.281246	0.682217	-0.143506	-0.281877	0.606685	-0.148469	-0.280213	0.682014	-0.362715	-0.285303	0.612301	-0.358621	-0.271741	0.970970	-0.192491	-0.273913	0.971340	-0.291907	-0.080009	0.914832	-0.129994	-0.078645	0.927583	-0.358290	-0.250816	1.125106	-0.243672	-0.274394	1.338226	-0.234424	-0.123425	1.338124	-0.236388	-0.097111	1.303233	-0.232202	-0.201746	1.350632	-0.060154	-0.194105	1.373024	-0.410725	-0.201099	1.042577	-0.009281	-0.214283	1.062873	-0.467068	-0.175598	0.841747	0.088702	-0.211283	0.861104	-0.581259	-0.102961	1.488989	-0.177044	-0.116691	1.501389	-0.296528	-0.249862	1.421181	-0.228813	-0.165418	1.048177	-0.428771	-0.157972	1.024591	-0.063117	
77	0.7700	-0.106071	0.042481	-0.152352	-0.146415	0.029142	-0.089458	-0.157127	0.052509	-0.127960	-0.110376	0.043552	-0.355107	-0.146331	0.024778	-0.428289	-0.159157	0.051196	-0.385105	-0.302279	0.050785	-0.161957	-0.308678	0.049325	-0.356875	-0.256234	0.068392	-0.117211	-0.260614	0.069340	-0.397147	-0.231831	0.087524	-0.196967	-0.236170	0.078039	-0.319085	-0.250204	0.035456	-0.191921	-0.266473	0.038696	-0.328703	-0.199290	0.460565	-0.118228	-0.206077	0.441750	-0.220390	-0.205867	0.453061	-0.287104	-0.202475	0.466553	-0.394678	-0.232115	0.413042	-0.106384	-0.236343	0.412721	-0.409884	-0.185537	0.395345	-0.149565	-0.186338	0.395267	-0.355050	-0.198938	0.305726	-0.164001	-0.210056	0.195590	-0.356586	-0.172548	0.658719	-0.076456	-0.187317	0.662878	-0.429318	-0.070268	0.709386	-0.152484	-0.095740	0.616839	-0.155150	-0.073405	0.716155	-0.354436	-0.099868	0.617923	-0.353070	-0.281207	0.682238	-0.143508	-0.281837	0.606680	-0.148454	-0.280185	0.682020	-0.362703	-0.285279	0.612303	-0.358629	-0.271700	0.970955	-0.192484	-0.273868	0.971338	-0.291887	-0.079932	0.914848	-0.129961	-0.078645	0.927593	-0.358327	-0.250786	1.125076	-0.243596	-0.274430	1.338204	-0.234297	-0.123537	1.338116	-0.236292	-0.097117	1.303236	-0.232056	-0.201801	1.350517	-0.059995	-0.194158	1.373053	-0.410571	-0.201131	1.042474	-0.009234	-0.214269	1.062921	-0.466988	-0.175705	0.841627	0.088705	-0.211179	0.861191	-0.581263	-0.102987	1.489018	-0.176889	-0.116758	1.501403	-0.296346	-0.249905	1.421138	-0.228648	-0.165402	1.048242	-0.428740	-0.157989	1.024498	-0.063039	
78	0.7800	-0.106090	0.042482	-0.152359	-0.146426	0.029144	-0.089466	-0.157137	0.052497	-0.127973	-0.110394	0.043551	-0.355107	-0.146335	0.024781	-0.428319	-0.159130	0.051225	-0.385110	-0.302264	0.050774	-0.161952	-0.308658	0.049316	-0.356863	-0.256217	0.068385	-0.117224	-0.260654	0.069360	-0.397160	-0.231833	0.087511	-0.196978	-0.236172	0.078048	-0.319113	-0.250222	0.035468	-0.191926	-0.266471	0.038697	-0.328697	-0.199252	0.460565	-0.118233	-0.206050	0.441755	-0.220388	-0.205835	0.453056	-0.287110	-0.202469	0.466557	-0.394690	-0.232095	0.413057	-0.106387	-0.236339	0.412699	-0.409891	-0.185495	0.395353	-0.149615	-0.186311	0.395254	-0.355070	-0.198924	0.305726	-0.163992	-0.210017	0.195605	-0.356596	-0.172514	0.658709	-0.076449	-0.187294	0.662912	-0.429343	-0.070261	0.709355	-0.152513	-0.095686	0.616803	-0.155171	-0.073341	0.716211	-0.354453	-0.099838	0.617931	-0.353087	-0.281169	0.682236	-0.143490	-0.281796	0.606684	-0.148446	-0.280170	0.682017	-0.362717	-0.285237	0.612295	-0.358615	-0.271659	0.970943	-0.192457	-0.273836	0.971308	-0.291883	-0.079888	0.914851	-0.129993	-0.078480	0.927685	-0.358284	-0.250760	1.125065	-0.243523	-0.274446	1.338172	-0.234154	-0.123548	1.338121	-0.236130	-0.097154	1.303212	-0.231938	-0.201881	1.350418	-0.059866	-0.194176	1.373085	-0.410405	-0.201204	1.042358	-0.009194	-0.214242	1.062984	-0.466911	-0.175790	0.841485	0.088698	-0.211087	0.861278	-0.581283	-0.103041	1.489045	-0.176757	-0.116844	1.501424	-0.296198	-0.249946	1.421105	-0.228478	-0.164827	1.048211	-0.428973	-0.157994	1.024402	-0.062972	
79	0.7900	-0.106077	0.042469	-0.152356	-0.146409	0.029140	-0.089460	-0.157175	0.052483	-0.127951	-0.110386	0.043548	-0.355117	-0.146342	0.024806	-0.428304	-0.159162	0.051211	-0.385140	-0.302233	0.050754	-0.161949	-0.308657	0.049309	-0.356879	-0.256215	0.068374	-0.117253	-0.260635	0.069350	-0.397151	-0.231869	0.087495	-0.197006	-0.236153	0.078055	-0.319116	-0.250224	0.035496	-0.191934	-0.266465	0.038696	-0.328691	-0.199219	0.460543	-0.118231	-0.206012	0.441761	-0.220370	-0.205803	0.453054	-0.287114	-0.202453	0.466555	-0.394687	-0.232054	0.413058	-0.106394	-0.236325	0.412724	-0.409906	-0.185432	0.395322	-0.149606	-0.186298	0.395240	-0.355073	-0.198891	0.305725	-0.164006	-0.210055	0.195594	-0.356603	-0.172484	0.658721	-0.076428	-0.187237	0.662892	-0.429310	-0.070304	0.709284	-0.152549	-0.095686	0.616796	-0.155184	-0.073305	0.716214	-0.354493	-0.099811	0.617921	-0.353094	-0.281120	0.682236	-0.143468	-0.281755	0.606692	-0.148447	-0.280153	0.682024	-0.362711	-0.285221	0.612296	-0.358605	-0.271602	0.970925	-0.192432	-0.273782	0.971333	-0.291863	-0.079829	0.914863	-0.130006	-0.078475	0.927680	-0.358302	-0.250751	1.125022	-0.243448	-0.274469	1.338148	-0.234006	-0.123571	1.338079	-0.235979	-0.097156	1.303236	-0.231803	-0.201927	1.350306	-0.059723	-0.194241	1.373108	-0.410286	-0.201224	1.042254	-0.009134	-0.214176	1.063003	-0.466864	-0.175852	0.841347	0.088703	-0.210986	0.861371	-0.581300	-0.103125	1.489061	-0.176571	-0.116923	1.501424	-0.296008	-0.249992	1.421073	-0.228317	-0.165302	1.048310	-0.428626	-0.158021	1.024305	-0.062892	
80	0.8000	-0.106081	0.042487	-0.152350	-0.146429	0.029121	-0.089481	-0.157155	0.052490	-0.127967	-0.110385	0.043547	-0.355115	-0.146323	0.024788	-0.428312	-0.159121	0.051229	-0.385113	-0.302215	0.050756	-0.161951	-0.308646	0.049315	-0.356864	-0.256213	0.068379	-0.117238	-0.260628	0.069376	-0.397153	-0.231844	0.087503	-0.197015	-0.236180	0.078016	-0.319111	-0.250208	0.035482	-0.191930	-0.266460	0.038694	-0.328695	-0.199198	0.460540	-0.118224	-0.205983	0.441746	-0.220396	-0.205798	0.453034	-0.287113	-0.202419	0.466560	-0.394687	-0.232023	0.413068	-0.106384	-0.236297	0.412718	-0.409896	-0.185439	0.395314	-0.149604	-0.186291	0.395234	-0.355058	-0.198864	0.305734	-0.164011	-0.210103	0.195577	-0.356572	-0.172407	0.658699	-0.076451	-0.187221	0.662906	-0.429294	-0.070232	0.709287	-0.152531	-0.095660	0.616764	-0.155210	-0.073261	0.716227	-0.354514	-0.099775	0.617945	-0.353096	-0.281069	0.682224	-0.143457	-0.281706	0.606696	-0.148443	-0.280114	0.682036	-0.362691	-0.285185	0.612298	-0.358586	-0.271553	0.970905	-0.192418	-0.273727	0.971317	-0.291840	-0.079788	0.914862	-0.130002	-0.078558	0.927684	-0.358332	-0.250738	1.125007	-0.243376	-0.274483	1.338116	-0.233871	-0.123569	1.338119	-0.235838	-0.097199	1.303190	-0.231693	-0.201967	1.350203	-0.059586	-0.194257	1.373148	-0.410132	-0.201263	1.042158	-0.009096	-0.214098	1.063044	-0.466846	-0.175935	0.841239	0.088702	-0.210874	0.861465	-0.581318	-0.102610	1.489325	-0.176331	-0.117017	1.501438	-0.295865	-0.250024	1.421034	-0.228126	-0.165251	1.048339	-0.428589	-0.158025	1.024236	-0.062823	
81	0.8100	-0.106059	0.042486	-0.152347	-0.146448	0.029114	-0.089474	-0.157161	0.052494	-0.127975	-0.110399	0.043537	-0.355108	-0.146311	0.024811	-0.428299	-0.159151	0.051216	-0.385163	-0.302266	0.050786	-0.161960	-0.308671	0.049339	-0.356868	-0.256210	0.068375	-0.117236	-0.260642	0.069381	-0.397161	-0.231854	0.087502	-0.196991	-0.236168	0.078040	-0.319116	-0.250198	0.035464	-0.191934	-0.266461	0.038695	-0.328690	-0.199185	0.460543	-0.118248	-0.205951	0.441765	-0.220386	-0.205762	0.453039	-0.287106	-0.202382	0.466567	-0.394683	-0.232033	0.413027	-0.106406	-0.236283	0.412725	-0.409900	-0.185396	0.395332	-0.149607	-0.186261	0.395269	-0.355089	-0.198858	0.305728	-0.164024	-0.210054	0.195591	-0.356619	-0.172384	0.658693	-0.076468	-0.187243	0.662926	-0.429321	-0.070292	0.709270	-0.152587	-0.095607	0.616793	-0.155207	-0.073266	0.716230	-0.354529	-0.099725	0.617942	-0.353121	-0.281024	0.682225	-0.143453	-0.281668	0.606695	-0.148449	-0.280110	0.682039	-0.362690	-0.285173	0.612300	-0.358589	-0.271518	0.970883	-0.192407	-0.273700	0.971331	-0.291813	-0.079740	0.914852	-0.130008	-0.078508	0.927700	-0.358357	-0.250743	1.124985	-0.243323	-0.274591	1.338180	-0.233845	-0.123646	1.338089	-0.235700	-0.097275	1.303187	-0.231576	-0.202039	1.350117	-0.059450	-0.194289	1.373181	-0.409984	-0.201281	1.042053	-0.009039	-0.214078	1.063098	-0.466804	-0.176004	0.841138	0.088713	-0.210790	0.861551	-0.581359	-0.102688	1.489284	-0.176174	-0.117087	1.501440	-0.295692	-0.250076	1.421012	-0.227957	-0.165271	1.048397	-0.428533	-0.158061	1.024170	-0.062776	
82	0.8200	-0.106064	0.042487	-0.152347	-0.146451	0.029138	-0.089489	-0.157148	0.052484	-0.127967	-0.110383	0.043552	-0.355117	-0.146316	0.024814	-0.428303	-0.159129	0.051205	-0.385103	-0.302537	0.051177	-0.162178	-0.308664	0.049344	-0.356859	-0.256203	0.068374	-0.117266	-0.260624	0.069382	-0.397132	-0.231850	0.087489	-0.197010	-0.236159	0.078030	-0.319120	-0.249818	0.035589	-0.191822	-0.266446	0.038686	-0.328683	-0.199130	0.460545	-0.118246	-0.205941	0.441761	-0.220413	-0.205760	0.453044	-0.287110	-0.202373	0.466555	-0.394682	-0.232007	0.413039	-0.106419	-0.236262	0.412722	-0.409898	-0.185403	0.395335	-0.149614	-0.186220	0.395255	-0.355059	-0.198827	0.305719	-0.164019	-0.210018	0.195614	-0.356598	-0.172379	0.658712	-0.076461	-0.187266	0.662930	-0.429309	-0.069973	0.709381	-0.152500	-0.095557	0.616796	-0.155205	-0.073219	0.716223	-0.354499	-0.099720	0.617948	-0.353138	-0.280994	0.682248	-0.143459	-0.281624	0.606695	-0.148444	-0.280103	0.682066	-0.362692	-0.285159	0.612321	-0.358588	-0.271493	0.970876	-0.192400	-0.273667	0.971316	-0.291785	-0.079699	0.914852	-0.129995	-0.078514	0.927745	-0.358338	-0.250759	1.124972	-0.243285	-0.274555	1.338065	-0.233620	-0.123715	1.338023	-0.235563	-0.097244	1.303150	-0.231416	-0.202117	1.350044	-0.059319	-0.194342	1.373208	-0.409855	-0.201316	1.041971	-0.009024	-0.214040	1.063168	-0.466792	-0.176055	0.841006	0.088714	-0.210714	0.861646	-0.581396	-0.102737	1.489308	-0.175992	-0.117189	1.501430	-0.295531	-0.250131	1.420970	-0.227804	-0.165256	1.048445	-0.428494	-0.158035	1.024083	-0.062692	
